<svg xmlns="http://www.w3.org/2000/svg" viewBox="0 0 307 120" width="307" height="120" role="img" aria-label="Draft Manager">
  <path d="M4 4 H116 V92 L92 116 H4 Z" fill="#6fe276"/>
  <path d="M35.42 88.08L19.29 88.08L19.29 27.92L35.83 27.92Q42.33 27.92 45.61 31.53Q48.89 35.13 48.89 42.07L48.89 70.24Q48.89 78.78 45.90 83.43Q42.91 88.08 35.42 88.08M31.39 38.45L31.39 77.45L33.48 77.45Q36.79 77.45 36.79 74.24L36.79 43.20Q36.79 40.19 35.99 39.32Q35.19 38.45 32.72 38.45L31.39 38.45M64.68 88.08L53.81 88.08L53.81 27.92L72.13 27.92L77.19 64.60L82.22 27.92L100.71 27.92L100.71 88.08L89.70 88.08L89.70 44.74L82.80 88.08L72 88.08L64.68 44.74" fill="#0E1513"/>
  <path d="M148.60 47.53L138 47.53L138 8L148.87 8Q153.14 8 155.29 10.37Q157.45 12.74 157.45 17.30L157.45 35.81Q157.45 41.42 155.49 44.48Q153.52 47.53 148.60 47.53M145.95 14.92L145.95 40.55L147.32 40.55Q149.50 40.55 149.50 38.43L149.50 18.04Q149.50 16.06 148.97 15.49Q148.44 14.92 146.83 14.92L145.95 14.92M168.68 47.53L160.69 47.53L160.69 8L172.81 8Q175.85 8 177.40 9.38Q178.95 10.76 179.47 13.24Q180 15.73 180 19.07Q180 22.31 179.18 24.24Q178.36 26.17 176.09 26.91Q177.96 27.29 178.71 28.77Q179.46 30.24 179.46 32.57L179.46 47.53L171.67 47.53L171.67 32.06Q171.67 30.33 170.96 29.91Q170.25 29.50 168.68 29.50L168.68 47.53M168.73 15.32L168.73 22.64L170.64 22.64Q172.28 22.64 172.28 19.07Q172.28 16.76 171.92 16.04Q171.56 15.32 170.57 15.32L168.73 15.32M189.21 47.53L181.53 47.53L185.35 8L198.76 8L202.51 47.53L195.03 47.53L194.47 41.15L189.71 41.15L189.21 47.53M191.77 14.74L190.27 34.84L193.86 34.84L192.13 14.74L191.77 14.74M212.88 47.53L204.93 47.53L204.93 8L220.75 8L220.75 15.70L212.88 15.70L212.88 21.99L220.34 21.99L220.34 29.61L212.88 29.61L212.88 47.53M234.58 47.53L226.68 47.53L226.68 15.59L221.98 15.59L221.98 8L239.28 8L239.28 15.59L234.58 15.59" fill="#F3F1E8"/>
  <path d="M145.14 101.42L138 101.42L138 61.89L150.04 61.89L153.36 85.99L156.67 61.89L168.82 61.89L168.82 101.42L161.58 101.42L161.58 72.94L157.05 101.42L149.95 101.42L145.14 72.94L145.14 101.42M178.92 101.42L171.24 101.42L175.06 61.89L188.47 61.89L192.22 101.42L184.74 101.42L184.18 95.04L179.42 95.04L178.92 101.42M181.48 68.63L179.98 88.73L183.57 88.73L181.84 68.63L181.48 68.63M202.37 101.42L194.65 101.42L194.65 61.89L202.78 61.89L206.42 80.83L206.42 61.89L214.05 61.89L214.05 101.42L206.33 101.42L202.37 81.66L202.37 101.42M224.16 101.42L216.48 101.42L220.30 61.89L233.71 61.89L237.46 101.42L229.98 101.42L229.42 95.04L224.65 95.04L224.16 101.42M226.72 68.63L225.22 88.73L228.81 88.73L227.08 68.63L226.72 68.63M248.04 101.78Q239.57 101.78 239.57 89.65L239.57 72.60Q239.57 61.53 249.27 61.53Q253.27 61.53 255.40 63.14Q257.54 64.74 258.35 67.82Q259.15 70.90 259.15 75.32L251.43 75.32L251.43 71.82Q251.43 70.54 251.08 69.67Q250.73 68.81 249.63 68.81Q248.26 68.81 247.82 69.73Q247.38 70.65 247.38 71.75L247.38 90.91Q247.38 92.50 247.80 93.50Q248.22 94.50 249.43 94.50Q250.69 94.50 251.10 93.50Q251.52 92.50 251.52 90.87L251.52 85.23L249.41 85.23L249.41 78.40L259.06 78.40L259.06 101.42L255.90 101.42L254.55 98.10Q252.48 101.78 248.04 101.78M278.52 101.42L262.19 101.42L262.19 61.89L278 61.89L278 69.53L270.23 69.53L270.23 77.23L277.68 77.23L277.68 84.67L270.23 84.67L270.23 93.72L278.52 93.72L278.52 101.42M289.12 101.42L281.12 101.42L281.12 61.89L293.25 61.89Q296.28 61.89 297.83 63.27Q299.38 64.65 299.91 67.14Q300.44 69.62 300.44 72.96Q300.44 76.20 299.62 78.13Q298.80 80.06 296.53 80.80Q298.39 81.18 299.15 82.66Q299.90 84.13 299.90 86.46L299.90 101.42L292.10 101.42L292.10 85.95Q292.10 84.22 291.40 83.80Q290.69 83.39 289.12 83.39L289.12 101.42M289.16 69.21L289.16 76.54L291.07 76.54Q292.71 76.54 292.71 72.96Q292.71 70.65 292.35 69.93Q291.99 69.21 291 69.21" fill="#6fe276"/>
</svg>
