<svg xmlns="http://www.w3.org/2000/svg" viewBox="0 0 188 111" width="188" height="111" role="img" aria-label="Draft Manager">
  <path d="M11.98 44.69L0 44.69L0 0L12.29 0Q17.11 0 19.55 2.68Q21.99 5.36 21.99 10.51L21.99 31.43Q21.99 37.78 19.77 41.23Q17.54 44.69 11.98 44.69M8.99 7.82L8.99 36.79L10.54 36.79Q13 36.79 13 34.40L13 11.35Q13 9.12 12.40 8.47Q11.81 7.82 9.98 7.82L8.99 7.82M34.68 44.69L25.64 44.69L25.64 0L39.36 0Q42.78 0 44.54 1.56Q46.29 3.12 46.88 5.93Q47.48 8.73 47.48 12.52Q47.48 16.17 46.55 18.36Q45.63 20.54 43.06 21.38Q45.17 21.81 46.02 23.47Q46.87 25.14 46.87 27.78L46.87 44.69L38.06 44.69L38.06 27.19Q38.06 25.24 37.26 24.77Q36.46 24.30 34.68 24.30L34.68 44.69M34.73 8.28L34.73 16.55L36.89 16.55Q38.75 16.55 38.75 12.52Q38.75 9.90 38.34 9.09Q37.93 8.28 36.82 8.28L34.73 8.28M57.89 44.69L49.21 44.69L53.52 0L68.68 0L72.92 44.69L64.47 44.69L63.83 37.48L58.45 37.48L57.89 44.69M60.79 7.62L59.08 30.34L63.15 30.34L61.19 7.62L60.79 7.62M84.65 44.69L75.66 44.69L75.66 0L93.54 0L93.54 8.71L84.65 8.71L84.65 15.82L93.08 15.82L93.08 24.43L84.65 24.43L84.65 44.69M109.18 44.69L100.24 44.69L100.24 8.58L94.94 8.58L94.94 0L114.49 0L114.49 8.58L109.18 8.58" fill="#F3F1E8"/>
  <path d="M8.07 105.78L0 105.78L0 61.09L13.61 61.09L17.37 88.34L21.10 61.09L34.84 61.09L34.84 105.78L26.66 105.78L26.66 73.59L21.53 105.78L13.51 105.78L8.07 73.59L8.07 105.78M46.26 105.78L37.58 105.78L41.89 61.09L57.05 61.09L61.29 105.78L52.84 105.78L52.20 98.57L46.82 98.57L46.26 105.78M49.16 68.71L47.46 91.44L51.52 91.44L49.56 68.71L49.16 68.71M72.77 105.78L64.04 105.78L64.04 61.09L73.23 61.09L77.34 82.50L77.34 61.09L85.97 61.09L85.97 105.78L77.24 105.78L72.77 83.44L72.77 105.78M97.40 105.78L88.71 105.78L93.03 61.09L108.19 61.09L112.43 105.78L103.97 105.78L103.34 98.57L97.96 98.57L97.40 105.78M100.29 68.71L98.59 91.44L102.65 91.44L100.70 68.71L100.29 68.71M124.39 106.19Q114.82 106.19 114.82 92.48L114.82 73.21Q114.82 60.69 125.79 60.69Q130.30 60.69 132.72 62.50Q135.13 64.32 136.04 67.80Q136.96 71.28 136.96 76.28L128.22 76.28L128.22 72.32Q128.22 70.87 127.83 69.89Q127.44 68.91 126.19 68.91Q124.64 68.91 124.15 69.96Q123.65 71 123.65 72.24L123.65 93.90Q123.65 95.70 124.12 96.83Q124.59 97.96 125.96 97.96Q127.38 97.96 127.85 96.83Q128.32 95.70 128.32 93.85L128.32 87.47L125.94 87.47L125.94 79.76L136.86 79.76L136.86 105.78L133.28 105.78L131.75 102.02Q129.42 106.19 124.39 106.19M158.84 105.78L140.38 105.78L140.38 61.09L158.26 61.09L158.26 69.73L149.47 69.73L149.47 78.44L157.90 78.44L157.90 86.84L149.47 86.84L149.47 97.07L158.84 97.07L158.84 105.78M170.83 105.78L161.79 105.78L161.79 61.09L175.50 61.09Q178.93 61.09 180.68 62.66Q182.43 64.22 183.03 67.02Q183.63 69.83 183.63 73.61Q183.63 77.27 182.70 79.45Q181.77 81.63 179.21 82.47Q181.31 82.90 182.17 84.57Q183.02 86.23 183.02 88.87L183.02 105.78L174.21 105.78L174.21 88.29Q174.21 86.33 173.41 85.86Q172.61 85.39 170.83 85.39L170.83 105.78M170.88 69.37L170.88 77.65L173.04 77.65Q174.89 77.65 174.89 73.61Q174.89 71 174.48 70.18Q174.08 69.37 172.96 69.37" fill="#6fe276"/>
</svg>
